<?xml version="1.0" encoding="UTF-8"?>
<svg width="1057.6" height="201.4" version="1.1" viewBox="-860.47 -375.47 1057.6 201.4" xmlns="http://www.w3.org/2000/svg">
    <g stroke-width=".23424">
        <path d="m-860.47-241.06h113.27v8e-3c8.6912-0.68421 13.914-10.296 9.4406-18.037-1.9868-3.4382-5.5262-5.6567-9.4406-5.9792v6e-3h-44.15v-1e-3c-19.577-0.20683-31.819-21.425-22.056-38.514 4.5342-7.936 12.931-12.866 22.056-12.971v-2e-3h60.485v14.339h-60.485v-0.0194c-8.6189 0.21901-13.937 9.6118-9.587 17.141 1.9908 3.4459 5.6257 5.6002 9.5872 5.7066v-0.0194h44.15v0.0169c19.636 0.68609 31.768 22.105 21.892 39.39-4.5272 7.9241-12.819 12.919-21.892 13.256v0.018h-113.27z"/>
        <path d="m-664.14-316.43c-17.864-9.3e-4 -35.459 10.606-42.203 29.828-5.2709 15.024-2.126 31.718 8.2497 43.796 12.928 15.047 32.473 18.739 48.853 12.917l19.888 39.647h14.34l-22.886-45.625c6.8923-5.0235 12.482-12.169 15.661-21.229 5.2709-15.024 2.1258-31.718-8.2502-43.796-9.0824-10.571-21.43-15.538-33.653-15.539zm0.23607 13.392c8.8585 0.10947 17.371 3.9957 23.272 10.863 11.882 13.83 9.011 33.489-3.3916 44.096l-11.878-23.679h-14.339l14.941 29.786c-1.0412 0.30849-2.1141 0.56794-3.2161 0.77548-10.95 2.0627-22.17-1.873-29.432-10.325-15.647-18.212-5.711-46.532 17.884-50.978 2.0532-0.38675 4.1161-0.56283 6.1603-0.53755z"/>
        <path d="m-670.24-271.75h14.339l11.878 23.679c12.403-10.606 15.273-30.266 3.3913-44.096-7.2617-8.4521-18.481-12.388-29.432-10.326-23.595 4.4447-33.531 32.765-17.884 50.978 7.2617 8.4523 18.481 12.388 29.432 10.326 1.1021-0.20753 2.1747-0.46731 3.2159-0.7758z" fill="#ed1b76"/>
        <path d="m-580.68-232.62c-13.961-7.9766-22.58-22.818-22.592-38.896v-45.028h14.339v45.028h-0.0101c0.0262 23.454 25.422 38.111 45.747 26.382 9.4333-5.4433 15.245-15.5 15.257-26.382h-0.0101v-103.95h14.339v103.89c0.0314 34.41-37.155 56.049-67.072 38.956z"/>
    </g>
    <rect x="-492.3" y="-316.55" width="14.339" height="89.662" stroke-width=".27936"/>
    <path d="m-455.05-316.54v89.829h68.85v-8e-3c15.758-0.30006 30.231-8.8775 38.071-22.625 17.054-29.903-4.4487-67.061-38.725-67.196h-68.197zm14.339 14.339h53.512v0.0169c10.949-0.0492 21.084 5.7843 26.556 15.285 11.736 20.376-2.9456 45.838-26.427 45.831v0.016h-53.643v-61.151z" stroke-width=".23424"/>
    <g stroke-width=".23435">
        <path d="m-176.59-174.07-26.407-52.644h-61.496c-34.428 0.0323-56.075-37.173-38.977-67.104 7.9712-13.952 22.795-22.572 38.86-22.602l5e-3 -9e-3h74.619l-7.1999 14.354h-68.083c-23.049 0.53409-37.297 25.633-25.682 45.762 5.4458 9.4377 15.508 15.252 26.395 15.265v-0.0103h54.362l-11.473-22.872h-46.214v-14.346h39.019l-2e-3 -4e-3h14.346l52.274 104.21z"/>
        <path d="m-133.02-316.42-43.861 89.704h16.002l27.86-56.978 27.86 56.978h16.003z"/>
        <path d="m-133.02-283.69 27.86 56.978h-55.719z" fill="#ed1b76"/>
        <path d="m17.122-226.73v-61.095l-30.651 61.102h-14.346l0.0021-4e-3h-0.05273l-30.648-61.1v61.104h-14.346v-89.704l-0.0026-5e-3h14.346l0.0014 3e-3h9.38e-4v2e-3l37.848 75.451 37.848-75.451v-0.0105h14.346v89.704z"/>
        <path d="m143.72-316.42v14.346h-75.36v61.006h75.36v14.346h-89.704v-89.704h14.346v9e-3z"/>
    </g>
    <g stroke-width=".31267">
        <rect x="68.351" y="-302.08" width="75.36" height="61.006" fill="#ed1b76"/>
        <rect x="103.43" y="-278.28" width="93.74" height="14.346"/>
    </g>
</svg>
